<?xml version="1.0" standalone="no"?>
<!DOCTYPE svg PUBLIC "-//W3C//DTD SVG 20010904//EN"
 "http://www.w3.org/TR/2001/REC-SVG-20010904/DTD/svg10.dtd">
<svg version="1.0" xmlns="http://www.w3.org/2000/svg"
 width="1147.000000pt" height="168.000000pt" viewBox="0 0 1147.000000 168.000000"
 preserveAspectRatio="xMidYMid meet">

<g transform="translate(0.000000,168.000000) scale(0.100000,-0.100000)"
fill="#000000" stroke="none">
<path d="M655 1608 c-30 -16 -45 -39 -45 -70 0 -21 22 -52 93 -129 102 -113
224 -208 496 -389 140 -94 169 -117 156 -125 -398 -242 -859 -548 -932 -619
-58 -57 -63 -65 -63 -105 0 -57 38 -96 103 -106 47 -7 207 5 407 30 311 41
979 100 1335 120 61 3 164 10 230 15 348 28 1534 74 2245 87 524 10 2312 10
2725 0 540 -13 1919 -70 2200 -92 39 -3 295 -16 570 -30 275 -14 576 -32 670
-40 219 -19 218 -19 254 11 38 32 41 72 8 110 -23 26 -29 28 -188 40 -361 28
-1295 78 -2519 134 -786 36 -1366 48 -2355 47 -991 -1 -1609 -12 -2525 -47
-382 -15 -1141 -53 -1380 -70 -548 -39 -833 -66 -1343 -125 -77 -9 -141 -14
-143 -12 -8 8 868 567 889 567 3 0 88 -43 189 -96 180 -94 436 -211 515 -234
23 -7 53 -10 67 -6 57 14 83 77 52 122 -9 12 -66 41 -138 70 -119 47 -454 208
-492 236 -17 14 -9 20 100 83 66 37 197 108 292 157 94 49 179 99 187 111 48
68 -18 144 -102 117 -62 -20 -616 -320 -648 -351 -5 -5 -15 -9 -23 -9 -21 0
-166 90 -350 217 -226 156 -270 191 -353 284 -95 104 -134 125 -184 97z"/>
</g>
</svg>
